# xmcd
#
# Track frame offsets:
#	150
#	22553
#	69455
#	90972
#	123635
#	157487
#
# Disc length: 2415 seconds
#
# Revision: 1
# Processed by: cddbd v1.5.2PL0 Copyright (c) Steve Scherf et al.
# Submitted via: audiograbber 1.83.01
#
DISCID=43096d06
DTITLE=Grateful Dead - 79-09-01 Holleder Memorial Stadium, Rochester NY
DYEAR=1900
DGENRE=
TTITLE0=Space
TTITLE1=Wharf Rat
TTITLE2=I Need A Miracle
TTITLE3=Bertha
TTITLE4=Good Lovin'
TTITLE5=One More Saturday Night
EXTD=
EXTT0=
EXTT1=
EXTT2=
EXTT3=
EXTT4=
EXTT5=
PLAYORDER=
